<?xml version="1.0" encoding="UTF-8" standalone="no"?>
<svg
   xmlns:dc="http://purl.org/dc/elements/1.1/"
   xmlns:cc="http://creativecommons.org/ns#"
   xmlns:rdf="http://www.w3.org/1999/02/22-rdf-syntax-ns#"
   xmlns:svg="http://www.w3.org/2000/svg"
   xmlns="http://www.w3.org/2000/svg"
   xmlns:sodipodi="http://sodipodi.sourceforge.net/DTD/sodipodi-0.dtd"
   xmlns:inkscape="http://www.inkscape.org/namespaces/inkscape"
   version="1.1"
   id="svg2"
   viewBox="0 0 720 144"
   height="144"
   width="720"
   sodipodi:docname="CoreAPM.svg"
   inkscape:version="0.92pre3 15195">
  <sodipodi:namedview
     pagecolor="#ffffff"
     bordercolor="#666666"
     borderopacity="1"
     objecttolerance="10"
     gridtolerance="10"
     guidetolerance="10"
     inkscape:pageopacity="0"
     inkscape:pageshadow="2"
     inkscape:window-width="1920"
     inkscape:window-height="1147"
     id="namedview8"
     showgrid="false"
     inkscape:pagecheckerboard="true"
     inkscape:zoom="0.39861111"
     inkscape:cx="-47.665506"
     inkscape:cy="72"
     inkscape:window-x="-8"
     inkscape:window-y="-8"
     inkscape:window-maximized="1"
     inkscape:current-layer="svg2" />
  <defs
     id="defs4" />
  <metadata
     id="metadata7">
    <rdf:RDF>
      <cc:Work
         rdf:about="">
        <dc:format>image/svg+xml</dc:format>
        <dc:type
           rdf:resource="http://purl.org/dc/dcmitype/StillImage" />
        <dc:title></dc:title>
      </cc:Work>
    </rdf:RDF>
  </metadata>
  <g
     transform="translate(-0.080078,-908.0593)"
     id="layer1">
    <g
       aria-label="CoreAPM"
       style="font-style:normal;font-weight:normal;font-size:40px;line-height:125%;font-family:sans-serif;letter-spacing:0px;word-spacing:0px;fill:#ffffff;fill-opacity:1;stroke:none;stroke-width:1px;stroke-linecap:butt;stroke-linejoin:miter;stroke-opacity:1"
       id="text3344">
      <path
         d="m 102.43164,1039.7312 q -15.292968,6.3281 -31.904296,6.3281 -25.839844,0 -42.1875,-17.3144 -16.259766,-17.4024 -16.259766,-45.35159 0,-30.67383 17.666016,-49.13086 17.666015,-18.54492 44.912109,-18.54492 14.501953,0 27.773437,4.6582 v 9.22852 q -13.271484,-5.97656 -27.949218,-5.97656 -23.730469,0 -38.583985,16.08398 -14.853515,16.08398 -14.853515,42.80273 0,25.752 14.15039,40.6934 14.238282,14.8535 36.035157,14.8535 17.402343,0 31.201171,-6.7676 z"
         style="font-style:normal;font-variant:normal;font-weight:300;font-stretch:normal;font-size:180px;font-family:'Segoe UI';-inkscape-font-specification:'Segoe UI Light';fill:#ffffff"
         id="path4471"
         inkscape:connector-curvature="0" />
      <path
         d="m 164.83398,1046.0593 q -19.6875,0 -31.20117,-12.9199 -11.42578,-13.0078 -11.42578,-33.75 0,-22.41211 11.95313,-35.06836 12.04101,-12.65625 31.64062,-12.65625 19.24805,0 30.41016,12.56836 11.16211,12.56836 11.16211,34.80469 0,21.00586 -11.42578,34.01366 -11.3379,13.0078 -31.11329,13.0078 z m 0.61524,-87.01169 q -15.9082,0 -25.40039,10.72265 -9.4043,10.72266 -9.4043,29.79493 0,17.66601 9.22852,28.38871 9.22851,10.7226 25.22461,10.7226 16.25976,0 25.04882,-10.5469 8.78907,-10.5468 8.78907,-29.26754 0,-19.24805 -8.78907,-29.53125 -8.70117,-10.2832 -24.69726,-10.2832 z"
         style="font-style:normal;font-variant:normal;font-weight:300;font-stretch:normal;font-size:180px;font-family:'Segoe UI';-inkscape-font-specification:'Segoe UI Light';fill:#ffffff"
         id="path4473"
         inkscape:connector-curvature="0" />
      <path
         d="m 272.06055,962.29956 q -4.04297,-2.90039 -9.49219,-2.90039 -10.63477,0 -17.8418,10.98633 -7.20703,10.98633 -7.20703,31.2012 v 42.2754 h -7.91016 v -90.00004 h 7.91016 v 19.95117 h 0.35156 q 3.07618,-10.2832 9.75586,-15.99609 6.67969,-5.71289 15.46875,-5.71289 5.00977,0 8.96485,1.58203 z"
         style="font-style:normal;font-variant:normal;font-weight:300;font-stretch:normal;font-size:180px;font-family:'Segoe UI';-inkscape-font-specification:'Segoe UI Light';fill:#ffffff"
         id="path4475"
         inkscape:connector-curvature="0" />
      <path
         d="m 287.44141,999.21362 q 0,18.54488 8.52539,29.00388 8.61328,10.459 23.55468,10.459 15.11719,0 29.53125,-11.1621 v 8.6133 q -13.97461,9.9316 -31.20117,9.9316 -17.40234,0 -28.125,-12.4804 -10.72265,-12.4805 -10.72265,-35.24418 0,-19.6875 11.16211,-33.13477 11.25,-13.53516 29.17968,-13.53516 16.78711,0 25.75196,11.77735 8.96484,11.77734 8.96484,32.16797 v 3.60351 z m 58.18359,-7.38281 q -0.52734,-15.55664 -7.4707,-24.16992 -6.94336,-8.61328 -19.16016,-8.61328 -12.65625,0 -21.00586,8.52539 -8.26172,8.4375 -10.19531,24.25781 z"
         style="font-style:normal;font-variant:normal;font-weight:300;font-stretch:normal;font-size:180px;font-family:'Segoe UI';-inkscape-font-specification:'Segoe UI Light';fill:#ffffff"
         id="path4477"
         inkscape:connector-curvature="0" />
      <path
         d="m 460.41016,1043.8621 -14.41407,-39.1993 h -54.66797 l -14.41406,39.1993 h -9.58008 l 47.54883,-126.0352 h 8.26172 l 47.02149,126.0352 z M 421.73828,938.39331 q -0.9668,-2.63672 -1.58203,-5.18555 -0.61523,-2.19726 -1.31836,-4.39453 h -0.35156 q -1.49414,5.80078 -2.90039,9.4043 l -21.18164,58.44726 h 48.60351 z"
         style="font-style:normal;font-variant:normal;font-weight:300;font-stretch:normal;font-size:180px;font-family:'Segoe UI';-inkscape-font-specification:'Segoe UI Light';fill:#ffffff"
         id="path4479"
         inkscape:connector-curvature="0" />
      <path
         d="m 500.22461,993.32495 v 50.53715 h -8.70117 V 917.8269 h 30.41015 q 19.42383,0 29.70703,9.05274 10.28321,8.96484 10.28321,26.2793 0,17.57812 -11.51367,28.91601 -11.42579,11.25 -32.08008,11.25 z m 0,-67.5 v 59.50195 h 17.92969 q 17.05078,0 25.92773,-8.08593 8.87695,-8.17383 8.87695,-23.02735 0,-28.38867 -32.60742,-28.38867 z"
         style="font-style:normal;font-variant:normal;font-weight:300;font-stretch:normal;font-size:180px;font-family:'Segoe UI';-inkscape-font-specification:'Segoe UI Light';fill:#ffffff"
         id="path4481"
         inkscape:connector-curvature="0" />
      <path
         d="m 698.85742,1043.8621 v -89.4727 q 0,-3.25195 0.9668,-18.54492 h -0.35156 q -2.72461,7.11914 -4.57032,10.98633 l -44.82422,97.03129 h -2.8125 l -45,-96.50395 q -2.19726,-4.6582 -4.13085,-11.86523 h -0.43946 q 0.61524,8.4375 0.61524,16.78711 v 91.58207 h -8.70118 V 917.8269 h 8.08594 l 47.02149,101.5137 q 0.43945,0.8789 0.96679,2.373 0.52735,1.4942 1.14258,2.9883 0.87891,2.2852 1.8457,5.0977 h 0.52735 l 0.9668,-2.8125 q 0.0879,-0.3516 2.98828,-8.3496 l 46.31836,-100.8106 h 7.73437 v 126.0352 z"
         style="font-style:normal;font-variant:normal;font-weight:300;font-stretch:normal;font-size:180px;font-family:'Segoe UI';-inkscape-font-specification:'Segoe UI Light';fill:#ffffff"
         id="path4483"
         inkscape:connector-curvature="0" />
    </g>
  </g>
</svg>
